<mxfile host="draw.akash.one" agent="Mozilla/5.0 (Macintosh; Intel Mac OS X 10_15_7) AppleWebKit/605.1.15 (KHTML, like Gecko) Version/17.5 Safari/605.1.15" version="24.7.5">
  <diagram name="Page-1" id="bfe91b75-5d2c-26a0-9c1d-138518896778">
    <mxGraphModel dx="1710" dy="1037" grid="1" gridSize="1" guides="1" tooltips="1" connect="1" arrows="1" fold="1" page="1" pageScale="1" pageWidth="1100" pageHeight="850" background="#FFFFFF" math="0" shadow="0">
      <root>
        <mxCell id="0" />
        <mxCell id="1" parent="0" />
        <mxCell id="9aAdgx9qmNABGIiAxtSB-51" style="edgeStyle=orthogonalEdgeStyle;shape=connector;rounded=0;orthogonalLoop=1;jettySize=auto;html=1;exitX=0.25;exitY=1;exitDx=0;exitDy=0;entryX=0.25;entryY=0;entryDx=0;entryDy=0;strokeColor=#3333FF;strokeWidth=2;align=center;verticalAlign=middle;fontFamily=Helvetica;fontSize=12;fontColor=#143642;labelBackgroundColor=none;endArrow=classic;endFill=1;fillColor=#FAE5C7;startArrow=none;startFill=0;dashed=1;" edge="1" parent="1" source="7c3789c024ecab99-78" target="9aAdgx9qmNABGIiAxtSB-34">
          <mxGeometry relative="1" as="geometry" />
        </mxCell>
        <mxCell id="7c3789c024ecab99-78" value="&lt;font style=&quot;font-size: 20px;&quot;&gt;&lt;font style=&quot;font-size: 20px;&quot;&gt;&lt;b&gt;LAN&lt;/b&gt; &lt;font style=&quot;font-size: 20px;&quot; color=&quot;#e63b7a&quot;&gt;[VLAN 1]&lt;/font&gt;&amp;nbsp;&lt;/font&gt;&lt;font color=&quot;#3333ff&quot; style=&quot;font-size: 20px;&quot;&gt;[192.168.1.0/24] &lt;/font&gt;&lt;font color=&quot;#009900&quot; style=&quot;font-size: 20px;&quot;&gt;[IPv6 Prefix 0x1]&lt;/font&gt;&lt;/font&gt;" style="rounded=1;whiteSpace=wrap;html=1;shadow=0;comic=0;strokeColor=#0F8B8D;strokeWidth=4;fillColor=none;fontFamily=Verdana;fontSize=25;fontColor=#143642;align=left;arcSize=11;verticalAlign=top;labelBackgroundColor=none;dashed=1;spacingLeft=25;spacingTop=10;spacing=0;" parent="1" vertex="1">
          <mxGeometry x="370" y="270" width="980" height="450" as="geometry" />
        </mxCell>
        <mxCell id="7c3789c024ecab99-8" value="OPNSense Firewall" style="fontColor=#143642;verticalAlign=top;verticalLabelPosition=bottom;labelPosition=center;align=center;html=1;fillColor=#FAE5C7;strokeColor=#0F8B8D;gradientDirection=north;strokeWidth=2;shape=mxgraph.networks.firewall;rounded=1;shadow=0;comic=0;labelBackgroundColor=none;fontSize=15;" parent="1" vertex="1">
          <mxGeometry x="1620" y="886" width="100" height="100" as="geometry" />
        </mxCell>
        <mxCell id="7c3789c024ecab99-52" style="edgeStyle=none;html=1;labelBackgroundColor=none;endArrow=classic;endFill=1;strokeWidth=2;fontFamily=Verdana;fontSize=15;fontColor=default;rounded=0;strokeColor=#A8201A;entryX=-0.012;entryY=0.191;entryDx=0;entryDy=0;entryPerimeter=0;curved=0;startArrow=classic;startFill=1;" parent="1" source="7c3789c024ecab99-10" target="7c3789c024ecab99-8" edge="1">
          <mxGeometry relative="1" as="geometry">
            <mxPoint x="1719.9999999999995" y="957" as="targetPoint" />
            <Array as="points">
              <mxPoint x="1500" y="905" />
            </Array>
          </mxGeometry>
        </mxCell>
        <mxCell id="7c3789c024ecab99-10" value="&lt;font style=&quot;font-size: 15px;&quot;&gt;TL-SG108SE&lt;/font&gt;&lt;div&gt;&lt;font style=&quot;font-size: 15px;&quot;&gt;Gigabit Switch&lt;/font&gt;&lt;/div&gt;&lt;div&gt;&lt;font style=&quot;font-size: 15px;&quot;&gt;(8 Ports)&lt;/font&gt;&lt;/div&gt;" style="fontColor=#143642;verticalAlign=top;verticalLabelPosition=bottom;labelPosition=center;align=center;html=1;fillColor=#FAE5C7;strokeColor=#0F8B8D;gradientDirection=north;strokeWidth=2;shape=mxgraph.networks.router;rounded=1;shadow=0;comic=0;labelBackgroundColor=none;" parent="1" vertex="1">
          <mxGeometry x="1450" y="720" width="100" height="30" as="geometry" />
        </mxCell>
        <mxCell id="9aAdgx9qmNABGIiAxtSB-17" style="edgeStyle=orthogonalEdgeStyle;shape=connector;rounded=0;orthogonalLoop=1;jettySize=auto;html=1;strokeColor=#A8201A;strokeWidth=2;align=center;verticalAlign=middle;fontFamily=Helvetica;fontSize=15;fontColor=#143642;labelBackgroundColor=none;endArrow=classic;endFill=1;fillColor=#FAE5C7;dashed=1;entryX=0;entryY=0.857;entryDx=0;entryDy=0;entryPerimeter=0;startArrow=classic;startFill=1;" edge="1" parent="1" source="9aAdgx9qmNABGIiAxtSB-13" target="9aAdgx9qmNABGIiAxtSB-8">
          <mxGeometry relative="1" as="geometry">
            <mxPoint x="780" y="410" as="sourcePoint" />
            <mxPoint x="931" y="405.84000000000003" as="targetPoint" />
            <Array as="points">
              <mxPoint x="840" y="410" />
            </Array>
          </mxGeometry>
        </mxCell>
        <mxCell id="9aAdgx9qmNABGIiAxtSB-22" style="edgeStyle=orthogonalEdgeStyle;rounded=0;orthogonalLoop=1;jettySize=auto;html=1;strokeColor=#A8201A;fontFamily=Helvetica;fontSize=15;fontColor=#143642;labelBackgroundColor=none;fillColor=#FAE5C7;endArrow=classic;endFill=1;strokeWidth=2;entryX=0;entryY=0.5;entryDx=0;entryDy=0;entryPerimeter=0;startArrow=classic;startFill=1;" edge="1" parent="1" source="9aAdgx9qmNABGIiAxtSB-8" target="9aAdgx9qmNABGIiAxtSB-9">
          <mxGeometry relative="1" as="geometry">
            <mxPoint x="1020" y="406" as="sourcePoint" />
            <mxPoint x="1070" y="570" as="targetPoint" />
            <Array as="points">
              <mxPoint x="1070" y="410" />
              <mxPoint x="1070" y="545" />
            </Array>
          </mxGeometry>
        </mxCell>
        <mxCell id="9aAdgx9qmNABGIiAxtSB-52" style="edgeStyle=orthogonalEdgeStyle;shape=connector;rounded=0;orthogonalLoop=1;jettySize=auto;html=1;exitX=0.25;exitY=1;exitDx=0;exitDy=0;entryX=0.25;entryY=0;entryDx=0;entryDy=0;strokeColor=#3333FF;strokeWidth=2;align=center;verticalAlign=middle;fontFamily=Helvetica;fontSize=12;fontColor=#143642;labelBackgroundColor=none;endArrow=classic;endFill=1;fillColor=#FAE5C7;startArrow=none;startFill=0;dashed=1;" edge="1" parent="1" source="9aAdgx9qmNABGIiAxtSB-34" target="9aAdgx9qmNABGIiAxtSB-40">
          <mxGeometry relative="1" as="geometry" />
        </mxCell>
        <mxCell id="9aAdgx9qmNABGIiAxtSB-53" style="edgeStyle=orthogonalEdgeStyle;shape=connector;rounded=0;orthogonalLoop=1;jettySize=auto;html=1;exitX=0.5;exitY=0;exitDx=0;exitDy=0;entryX=0.5;entryY=1;entryDx=0;entryDy=0;strokeColor=#3333FF;strokeWidth=2;align=center;verticalAlign=middle;fontFamily=Helvetica;fontSize=12;fontColor=#143642;labelBackgroundColor=none;endArrow=classic;endFill=1;fillColor=#FAE5C7;dashed=1;" edge="1" parent="1" source="9aAdgx9qmNABGIiAxtSB-56" target="7c3789c024ecab99-78">
          <mxGeometry relative="1" as="geometry" />
        </mxCell>
        <mxCell id="9aAdgx9qmNABGIiAxtSB-94" style="edgeStyle=orthogonalEdgeStyle;shape=connector;rounded=0;orthogonalLoop=1;jettySize=auto;html=1;exitX=0.999;exitY=0.586;exitDx=0;exitDy=0;strokeColor=#3333FF;strokeWidth=2;align=center;verticalAlign=middle;fontFamily=Helvetica;fontSize=12;fontColor=#143642;labelBackgroundColor=none;endArrow=classic;endFill=1;fillColor=#FAE5C7;entryX=-0.005;entryY=0.76;entryDx=0;entryDy=0;entryPerimeter=0;exitPerimeter=0;dashed=1;" edge="1" parent="1" source="9aAdgx9qmNABGIiAxtSB-34" target="7c3789c024ecab99-8">
          <mxGeometry relative="1" as="geometry">
            <mxPoint x="1650" y="960" as="targetPoint" />
            <Array as="points">
              <mxPoint x="1350" y="962" />
            </Array>
          </mxGeometry>
        </mxCell>
        <mxCell id="9aAdgx9qmNABGIiAxtSB-34" value="&lt;font style=&quot;font-size: 20px;&quot;&gt;&lt;b&gt;IOT&lt;/b&gt;&amp;nbsp;&lt;font color=&quot;#e63b7a&quot;&gt;[VLAN 30]&lt;/font&gt;&amp;nbsp;&lt;/font&gt;&lt;font style=&quot;font-size: 20px;&quot; color=&quot;#3333ff&quot;&gt;[192.168.3.0/24]&amp;nbsp;&lt;/font&gt;&lt;font style=&quot;font-size: 20px;&quot; color=&quot;#009900&quot;&gt;[IPv6 Prefix 0x3]&lt;/font&gt;" style="rounded=1;whiteSpace=wrap;html=1;shadow=0;comic=0;strokeColor=#0F8B8D;strokeWidth=4;fillColor=none;fontFamily=Verdana;fontSize=25;fontColor=#143642;align=left;arcSize=11;verticalAlign=top;labelBackgroundColor=none;dashed=1;spacingLeft=25;spacingTop=10;spacing=0;" vertex="1" parent="1">
          <mxGeometry x="370" y="798" width="980" height="280" as="geometry" />
        </mxCell>
        <mxCell id="7c3789c024ecab99-56" style="edgeStyle=elbowEdgeStyle;html=1;labelBackgroundColor=none;endArrow=classic;endFill=1;strokeWidth=2;fontFamily=Helvetica;fontSize=15;fontColor=#143642;rounded=0;strokeColor=#A8201A;align=center;verticalAlign=middle;fillColor=#FAE5C7;startArrow=classic;startFill=1;entryX=0.501;entryY=0.952;entryDx=0;entryDy=0;entryPerimeter=0;" parent="1" source="9aAdgx9qmNABGIiAxtSB-1" target="9aAdgx9qmNABGIiAxtSB-12" edge="1">
          <mxGeometry relative="1" as="geometry">
            <mxPoint x="1670.2233333333336" y="725" as="sourcePoint" />
            <mxPoint x="1670" y="520" as="targetPoint" />
            <Array as="points">
              <mxPoint x="1670" y="520" />
            </Array>
          </mxGeometry>
        </mxCell>
        <mxCell id="9aAdgx9qmNABGIiAxtSB-2" value="" style="edgeStyle=orthogonalEdgeStyle;rounded=0;orthogonalLoop=1;jettySize=auto;html=1;labelBackgroundColor=none;strokeColor=#A8201A;fontColor=default;endArrow=classic;endFill=1;strokeWidth=2;startArrow=classic;startFill=1;" edge="1" parent="1" source="9aAdgx9qmNABGIiAxtSB-1" target="7c3789c024ecab99-8">
          <mxGeometry relative="1" as="geometry" />
        </mxCell>
        <mxCell id="9aAdgx9qmNABGIiAxtSB-1" value="&lt;font style=&quot;font-size: 15px;&quot;&gt;Spectrum Modem&lt;/font&gt;" style="fontColor=#143642;verticalAlign=top;verticalLabelPosition=bottom;labelPosition=center;align=center;html=1;outlineConnect=0;fillColor=#FAE5C7;strokeColor=#0F8B8D;gradientDirection=north;strokeWidth=2;shape=mxgraph.networks.modem;labelBackgroundColor=none;" vertex="1" parent="1">
          <mxGeometry x="1620" y="721" width="100" height="30" as="geometry" />
        </mxCell>
        <mxCell id="9aAdgx9qmNABGIiAxtSB-4" value="&lt;font style=&quot;font-size: 15px;&quot;&gt;Synology DiskStation&lt;/font&gt;&lt;div style=&quot;font-size: 15px;&quot;&gt;&lt;font style=&quot;font-size: 15px;&quot;&gt;DS923+ NAS&lt;/font&gt;&lt;/div&gt;" style="pointerEvents=1;shadow=0;dashed=0;strokeColor=#0F8B8D;fillColor=#FAE5C7;labelPosition=center;verticalLabelPosition=bottom;verticalAlign=top;align=center;outlineConnect=0;shape=mxgraph.veeam2.nas;horizontal=1;fontSize=12;html=1;rounded=1;comic=0;strokeWidth=2;fontFamily=Helvetica;fontColor=#143642;labelBackgroundColor=none;gradientDirection=north;" vertex="1" parent="1">
          <mxGeometry x="1150" y="330" width="100" height="100" as="geometry" />
        </mxCell>
        <mxCell id="9aAdgx9qmNABGIiAxtSB-6" style="edgeStyle=orthogonalEdgeStyle;rounded=0;orthogonalLoop=1;jettySize=auto;html=1;entryX=0.5;entryY=0;entryDx=0;entryDy=0;entryPerimeter=0;strokeColor=#A8201A;fontColor=default;fillColor=#FAE5C7;labelBackgroundColor=none;endArrow=classic;endFill=1;strokeWidth=2;startArrow=classic;startFill=1;" edge="1" parent="1" source="9aAdgx9qmNABGIiAxtSB-4" target="7c3789c024ecab99-10">
          <mxGeometry relative="1" as="geometry">
            <Array as="points">
              <mxPoint x="1500" y="380" />
            </Array>
          </mxGeometry>
        </mxCell>
        <mxCell id="9aAdgx9qmNABGIiAxtSB-8" value="UniFi U6-Mesh&lt;div style=&quot;font-size: 15px;&quot;&gt;&lt;br style=&quot;font-size: 15px;&quot;&gt;&lt;/div&gt;" style="fontColor=#143642;verticalAlign=top;verticalLabelPosition=bottom;labelPosition=center;align=center;html=1;outlineConnect=0;fillColor=#FAE5C7;strokeColor=#0F8B8D;gradientColor=none;gradientDirection=north;strokeWidth=2;shape=mxgraph.networks.wireless_hub;rounded=1;shadow=0;dashed=0;comic=0;pointerEvents=1;fontFamily=Helvetica;fontSize=15;labelBackgroundColor=none;" vertex="1" parent="1">
          <mxGeometry x="910" y="337.5" width="100" height="85" as="geometry" />
        </mxCell>
        <mxCell id="9aAdgx9qmNABGIiAxtSB-9" value="&lt;span style=&quot;font-size: 15px;&quot;&gt;UniFi USW-24-G1&lt;/span&gt;&lt;div&gt;&lt;span style=&quot;font-size: 15px;&quot;&gt;Gigabit Switch&lt;/span&gt;&lt;/div&gt;&lt;div&gt;&lt;span style=&quot;font-size: 15px;&quot;&gt;(24 Ports)&lt;/span&gt;&lt;/div&gt;" style="fontColor=#143642;verticalAlign=top;verticalLabelPosition=bottom;labelPosition=center;align=center;html=1;fillColor=#FAE5C7;strokeColor=#0F8B8D;gradientDirection=north;strokeWidth=2;shape=mxgraph.networks.router;rounded=1;shadow=0;comic=0;labelBackgroundColor=none;fontFamily=Helvetica;fontSize=12;" vertex="1" parent="1">
          <mxGeometry x="1150" y="530" width="100" height="30" as="geometry" />
        </mxCell>
        <mxCell id="9aAdgx9qmNABGIiAxtSB-10" style="edgeStyle=orthogonalEdgeStyle;rounded=0;orthogonalLoop=1;jettySize=auto;html=1;entryX=0.5;entryY=0;entryDx=0;entryDy=0;entryPerimeter=0;strokeColor=#A8201A;fontFamily=Helvetica;fontSize=15;fontColor=#143642;labelBackgroundColor=none;fillColor=#FAE5C7;endArrow=classic;endFill=1;strokeWidth=2;startArrow=classic;startFill=1;" edge="1" parent="1" target="7c3789c024ecab99-10">
          <mxGeometry relative="1" as="geometry">
            <mxPoint x="1250" y="542.0000000000002" as="sourcePoint" />
            <mxPoint x="1470" y="937" as="targetPoint" />
            <Array as="points">
              <mxPoint x="1500" y="542" />
            </Array>
          </mxGeometry>
        </mxCell>
        <mxCell id="9aAdgx9qmNABGIiAxtSB-12" value="&lt;font style=&quot;font-size: 25px;&quot;&gt;Internet&lt;/font&gt;" style="ellipse;shape=cloud;whiteSpace=wrap;html=1;rounded=1;shadow=0;dashed=0;comic=0;pointerEvents=1;strokeColor=#0F8B8D;strokeWidth=2;align=center;verticalAlign=middle;fontFamily=Helvetica;fontSize=15;fontColor=#143642;labelBackgroundColor=none;fillColor=#FAE5C7;gradientDirection=north;" vertex="1" parent="1">
          <mxGeometry x="1565" y="380" width="210" height="140" as="geometry" />
        </mxCell>
        <mxCell id="9aAdgx9qmNABGIiAxtSB-16" style="edgeStyle=orthogonalEdgeStyle;shape=connector;rounded=0;orthogonalLoop=1;jettySize=auto;html=1;strokeColor=#A8201A;strokeWidth=2;align=center;verticalAlign=middle;fontFamily=Helvetica;fontSize=15;fontColor=#143642;labelBackgroundColor=none;endArrow=classic;endFill=1;fillColor=#FAE5C7;dashed=1;startArrow=classic;startFill=1;entryX=-0.011;entryY=0.859;entryDx=0;entryDy=0;entryPerimeter=0;exitX=0.163;exitY=0.311;exitDx=0;exitDy=0;exitPerimeter=0;" edge="1" parent="1" source="7c3789c024ecab99-78" target="9aAdgx9qmNABGIiAxtSB-13">
          <mxGeometry relative="1" as="geometry">
            <mxPoint x="540" y="411" as="sourcePoint" />
            <mxPoint x="672.3" y="410.01" as="targetPoint" />
            <Array as="points">
              <mxPoint x="669" y="410" />
            </Array>
          </mxGeometry>
        </mxCell>
        <mxCell id="9aAdgx9qmNABGIiAxtSB-13" value="&lt;span style=&quot;caret-color: rgb(20, 54, 66); color: rgb(20, 54, 66);&quot;&gt;UniFi U6-Mesh&lt;/span&gt;" style="fontColor=#143642;verticalAlign=top;verticalLabelPosition=bottom;labelPosition=center;align=center;html=1;outlineConnect=0;fillColor=#FAE5C7;strokeColor=#0F8B8D;gradientColor=none;gradientDirection=north;strokeWidth=2;shape=mxgraph.networks.wireless_hub;rounded=1;shadow=0;dashed=0;comic=0;pointerEvents=1;fontFamily=Helvetica;fontSize=15;labelBackgroundColor=none;" vertex="1" parent="1">
          <mxGeometry x="670" y="337.5" width="100" height="85" as="geometry" />
        </mxCell>
        <mxCell id="9aAdgx9qmNABGIiAxtSB-14" value="UniFi UAP-nanoHD" style="fontColor=#143642;verticalAlign=top;verticalLabelPosition=bottom;labelPosition=center;align=center;html=1;outlineConnect=0;fillColor=#FAE5C7;strokeColor=#0F8B8D;gradientColor=none;gradientDirection=north;strokeWidth=2;shape=mxgraph.networks.wireless_hub;rounded=1;shadow=0;dashed=0;comic=0;pointerEvents=1;fontFamily=Helvetica;fontSize=15;labelBackgroundColor=none;" vertex="1" parent="1">
          <mxGeometry x="430" y="337.5" width="100" height="85" as="geometry" />
        </mxCell>
        <mxCell id="9aAdgx9qmNABGIiAxtSB-18" value="" style="points=[[0.005,0.09,0],[0.08,0,0],[0.76,0.25,0],[1,0.92,0],[0.91,0.995,0],[0.57,0.995,0],[0.045,0.955,0],[0.005,0.43,0]];verticalLabelPosition=bottom;sketch=0;html=1;verticalAlign=top;aspect=fixed;align=center;pointerEvents=1;shape=mxgraph.cisco19.3g_4g_indicator;fillColor=#005073;strokeColor=none;rounded=1;shadow=0;dashed=0;comic=0;strokeWidth=2;fontFamily=Helvetica;fontSize=15;fontColor=#143642;labelBackgroundColor=none;" vertex="1" parent="1">
          <mxGeometry x="825" y="367.5" width="25" height="25" as="geometry" />
        </mxCell>
        <mxCell id="9aAdgx9qmNABGIiAxtSB-20" value="" style="points=[[0.005,0.09,0],[0.08,0,0],[0.76,0.25,0],[1,0.92,0],[0.91,0.995,0],[0.57,0.995,0],[0.045,0.955,0],[0.005,0.43,0]];verticalLabelPosition=bottom;sketch=0;html=1;verticalAlign=top;aspect=fixed;align=center;pointerEvents=1;shape=mxgraph.cisco19.3g_4g_indicator;fillColor=#005073;strokeColor=none;rounded=1;shadow=0;dashed=0;comic=0;strokeWidth=2;fontFamily=Helvetica;fontSize=15;fontColor=#143642;labelBackgroundColor=none;" vertex="1" parent="1">
          <mxGeometry x="590" y="367.5" width="25" height="25" as="geometry" />
        </mxCell>
        <mxCell id="9aAdgx9qmNABGIiAxtSB-29" style="edgeStyle=orthogonalEdgeStyle;shape=connector;rounded=0;orthogonalLoop=1;jettySize=auto;html=1;strokeColor=#A8201A;strokeWidth=2;align=center;verticalAlign=middle;fontFamily=Helvetica;fontSize=15;fontColor=#143642;labelBackgroundColor=none;endArrow=classic;endFill=1;fillColor=#FAE5C7;entryX=0;entryY=0.5;entryDx=0;entryDy=0;entryPerimeter=0;startArrow=classic;startFill=1;" edge="1" parent="1" source="9aAdgx9qmNABGIiAxtSB-23" target="9aAdgx9qmNABGIiAxtSB-9">
          <mxGeometry relative="1" as="geometry">
            <Array as="points">
              <mxPoint x="1110" y="545" />
              <mxPoint x="1110" y="545" />
            </Array>
          </mxGeometry>
        </mxCell>
        <mxCell id="9aAdgx9qmNABGIiAxtSB-23" value="&lt;font style=&quot;font-size: 15px;&quot;&gt;gaia&lt;/font&gt;" style="sketch=0;outlineConnect=0;fontColor=#232F3E;gradientColor=none;fillColor=#0F8B8D;strokeColor=none;dashed=0;verticalLabelPosition=bottom;verticalAlign=top;align=center;html=1;fontSize=12;fontStyle=0;aspect=fixed;pointerEvents=1;shape=mxgraph.aws4.traditional_server;rounded=1;shadow=0;comic=0;strokeWidth=2;fontFamily=Helvetica;labelBackgroundColor=none;" vertex="1" parent="1">
          <mxGeometry x="950" y="500" width="51.96" height="90" as="geometry" />
        </mxCell>
        <mxCell id="9aAdgx9qmNABGIiAxtSB-26" value="&lt;font style=&quot;font-size: 17px;&quot;&gt;&lt;b&gt;zeus (Proxmox)&lt;/b&gt;&lt;/font&gt;" style="points=[[0,0],[0.25,0],[0.5,0],[0.75,0],[1,0],[1,0.25],[1,0.5],[1,0.75],[1,1],[0.75,1],[0.5,1],[0.25,1],[0,1],[0,0.75],[0,0.5],[0,0.25]];outlineConnect=0;gradientColor=none;html=1;whiteSpace=wrap;fontSize=12;fontStyle=0;container=1;pointerEvents=0;collapsible=0;recursiveResize=0;shape=mxgraph.aws4.group;grIcon=mxgraph.aws4.group_on_premise;strokeColor=#7D8998;fillColor=none;verticalAlign=top;align=left;spacingLeft=30;fontColor=#5A6C86;dashed=0;rounded=1;shadow=0;comic=0;strokeWidth=2;fontFamily=Helvetica;labelBackgroundColor=none;" vertex="1" parent="1">
          <mxGeometry x="410" y="480" width="480" height="200" as="geometry" />
        </mxCell>
        <mxCell id="9aAdgx9qmNABGIiAxtSB-31" value="talos0" style="shadow=0;dashed=0;html=1;strokeColor=#0F8B8D;fillColor=#FAE5C7;labelPosition=center;verticalLabelPosition=bottom;verticalAlign=top;align=center;outlineConnect=0;shape=mxgraph.veeam.vm_linux;rounded=1;comic=0;pointerEvents=1;strokeWidth=2;fontFamily=Helvetica;fontSize=15;fontColor=#143642;labelBackgroundColor=none;gradientColor=none;gradientDirection=north;" vertex="1" parent="9aAdgx9qmNABGIiAxtSB-26">
          <mxGeometry x="200" y="50" width="100" height="100" as="geometry" />
        </mxCell>
        <mxCell id="9aAdgx9qmNABGIiAxtSB-32" value="talos1" style="shadow=0;dashed=0;html=1;strokeColor=#0F8B8D;fillColor=#FAE5C7;labelPosition=center;verticalLabelPosition=bottom;verticalAlign=top;align=center;outlineConnect=0;shape=mxgraph.veeam.vm_linux;rounded=1;comic=0;pointerEvents=1;strokeWidth=2;fontFamily=Helvetica;fontSize=15;fontColor=#143642;labelBackgroundColor=none;gradientColor=none;gradientDirection=north;" vertex="1" parent="9aAdgx9qmNABGIiAxtSB-26">
          <mxGeometry x="340" y="50" width="100" height="100" as="geometry" />
        </mxCell>
        <mxCell id="9aAdgx9qmNABGIiAxtSB-30" style="edgeStyle=orthogonalEdgeStyle;shape=connector;rounded=0;orthogonalLoop=1;jettySize=auto;html=1;strokeColor=#A8201A;strokeWidth=2;align=center;verticalAlign=middle;fontFamily=Helvetica;fontSize=15;fontColor=#143642;labelBackgroundColor=none;endArrow=classic;endFill=1;fillColor=#FAE5C7;entryX=0;entryY=0.5;entryDx=0;entryDy=0;entryPerimeter=0;startArrow=classic;startFill=1;" edge="1" parent="1" source="9aAdgx9qmNABGIiAxtSB-26" target="9aAdgx9qmNABGIiAxtSB-9">
          <mxGeometry relative="1" as="geometry">
            <mxPoint x="890" y="640.0344827586207" as="sourcePoint" />
            <mxPoint x="1130" y="555" as="targetPoint" />
            <Array as="points">
              <mxPoint x="1070" y="640" />
              <mxPoint x="1070" y="545" />
            </Array>
          </mxGeometry>
        </mxCell>
        <mxCell id="9aAdgx9qmNABGIiAxtSB-35" value="Phones / Tablets" style="sketch=0;html=1;aspect=fixed;strokeColor=#0F8B8D;shadow=0;fillColor=#FAE5C7;verticalAlign=top;labelPosition=center;verticalLabelPosition=bottom;shape=mxgraph.gcp2.phone_android;rounded=1;dashed=0;comic=0;pointerEvents=1;strokeWidth=2;align=center;fontFamily=Helvetica;fontSize=15;fontColor=#143642;labelBackgroundColor=none;gradientDirection=north;" vertex="1" parent="1">
          <mxGeometry x="410" y="892" width="56" height="100" as="geometry" />
        </mxCell>
        <mxCell id="9aAdgx9qmNABGIiAxtSB-36" value="Lights" style="html=1;verticalLabelPosition=bottom;align=center;labelBackgroundColor=none;verticalAlign=top;strokeWidth=2;strokeColor=#0F8B8D;shadow=0;dashed=0;shape=mxgraph.ios7.icons.lightbulb;rounded=1;comic=0;pointerEvents=1;fontFamily=Helvetica;fontSize=15;fontColor=#143642;fillColor=#FAE5C7;gradientDirection=north;aspect=fixed;" vertex="1" parent="1">
          <mxGeometry x="840" y="892" width="76.77" height="100" as="geometry" />
        </mxCell>
        <mxCell id="9aAdgx9qmNABGIiAxtSB-37" value="Media Devices" style="sketch=0;pointerEvents=1;shadow=0;dashed=0;html=1;strokeColor=#0F8B8D;fillColor=#FAE5C7;labelPosition=center;verticalLabelPosition=bottom;verticalAlign=top;outlineConnect=0;align=center;shape=mxgraph.office.devices.tv;rounded=1;comic=0;strokeWidth=2;fontFamily=Helvetica;fontSize=15;fontColor=#143642;labelBackgroundColor=none;aspect=fixed;gradientDirection=north;" vertex="1" parent="1">
          <mxGeometry x="668.89" y="892" width="131.11" height="100" as="geometry" />
        </mxCell>
        <mxCell id="9aAdgx9qmNABGIiAxtSB-54" style="edgeStyle=orthogonalEdgeStyle;shape=connector;rounded=0;orthogonalLoop=1;jettySize=auto;html=1;exitX=0.5;exitY=0;exitDx=0;exitDy=0;entryX=0.5;entryY=1;entryDx=0;entryDy=0;strokeColor=#3333FF;strokeWidth=2;align=center;verticalAlign=middle;fontFamily=Helvetica;fontSize=12;fontColor=#143642;labelBackgroundColor=none;endArrow=classic;endFill=1;fillColor=#FAE5C7;dashed=1;" edge="1" parent="1" source="9aAdgx9qmNABGIiAxtSB-67" target="9aAdgx9qmNABGIiAxtSB-34">
          <mxGeometry relative="1" as="geometry" />
        </mxCell>
        <mxCell id="9aAdgx9qmNABGIiAxtSB-93" style="edgeStyle=orthogonalEdgeStyle;shape=connector;rounded=0;orthogonalLoop=1;jettySize=auto;html=1;exitX=1;exitY=0.5;exitDx=0;exitDy=0;strokeColor=#3333FF;strokeWidth=2;align=center;verticalAlign=middle;fontFamily=Helvetica;fontSize=12;fontColor=#143642;labelBackgroundColor=none;endArrow=classic;endFill=1;fillColor=#FAE5C7;entryX=0;entryY=0.761;entryDx=0;entryDy=0;entryPerimeter=0;dashed=1;startArrow=classic;startFill=1;" edge="1" parent="1" source="9aAdgx9qmNABGIiAxtSB-40" target="7c3789c024ecab99-8">
          <mxGeometry relative="1" as="geometry">
            <mxPoint x="1650" y="960.0000000000002" as="targetPoint" />
            <Array as="points">
              <mxPoint x="1496" y="1300" />
              <mxPoint x="1496" y="962" />
            </Array>
          </mxGeometry>
        </mxCell>
        <mxCell id="9aAdgx9qmNABGIiAxtSB-40" value="&lt;font style=&quot;font-size: 20px;&quot;&gt;&lt;b&gt;DMZ&lt;/b&gt;&amp;nbsp;&lt;font color=&quot;#e63b7a&quot;&gt;[VLAN 90]&lt;/font&gt;&amp;nbsp;&lt;/font&gt;&lt;font style=&quot;font-size: 20px;&quot; color=&quot;#3333ff&quot;&gt;[192.168.90.0/24]&amp;nbsp;&lt;/font&gt;&lt;font style=&quot;font-size: 20px;&quot; color=&quot;#009900&quot;&gt;[IPv6 Prefix 0x9]&lt;/font&gt;" style="rounded=1;whiteSpace=wrap;html=1;shadow=0;comic=0;strokeColor=#0F8B8D;strokeWidth=4;fillColor=none;fontFamily=Verdana;fontSize=25;fontColor=#143642;align=left;arcSize=11;verticalAlign=top;labelBackgroundColor=none;dashed=1;spacingLeft=25;spacingTop=10;spacing=0;" vertex="1" parent="1">
          <mxGeometry x="370" y="1160" width="980" height="280" as="geometry" />
        </mxCell>
        <mxCell id="9aAdgx9qmNABGIiAxtSB-43" value="Speakers" style="strokeColor=#dddddd;shadow=1;strokeWidth=1;rounded=1;absoluteArcSize=1;arcSize=2;labelPosition=center;verticalLabelPosition=bottom;align=center;verticalAlign=top;spacingLeft=0;fontColor=#000000;fontSize=15;whiteSpace=wrap;spacingBottom=2;html=1;dashed=0;comic=0;pointerEvents=1;fontFamily=Helvetica;labelBackgroundColor=none;fillColor=#FAE5C7;gradientDirection=north;aspect=fixed;" vertex="1" parent="1">
          <mxGeometry x="960" y="892" width="82.35" height="100" as="geometry" />
        </mxCell>
        <mxCell id="9aAdgx9qmNABGIiAxtSB-44" value="" style="sketch=0;dashed=0;connectable=0;html=1;fillColor=#0F8B8D;strokeColor=none;shape=mxgraph.gcp2.speaker;part=1;rounded=1;shadow=0;comic=0;pointerEvents=1;strokeWidth=2;align=center;verticalAlign=top;fontFamily=Helvetica;fontSize=15;fontColor=#143642;labelBackgroundColor=none;aspect=fixed;" vertex="1" parent="9aAdgx9qmNABGIiAxtSB-43">
          <mxGeometry x="0.5" width="56" height="80" relative="1" as="geometry">
            <mxPoint x="-28" y="10" as="offset" />
          </mxGeometry>
        </mxCell>
        <mxCell id="9aAdgx9qmNABGIiAxtSB-46" value="&lt;font style=&quot;font-size: 15px;&quot;&gt;Laptops&lt;/font&gt;" style="verticalLabelPosition=bottom;html=1;verticalAlign=top;align=center;strokeColor=#0F8B8D;fillColor=#FAE5C7;shape=mxgraph.azure.laptop;pointerEvents=1;rounded=1;shadow=0;comic=0;strokeWidth=2;fontFamily=Helvetica;fontSize=15;fontColor=#143642;labelBackgroundColor=none;gradientDirection=north;aspect=fixed;" vertex="1" parent="1">
          <mxGeometry x="510" y="905" width="116.67" height="70" as="geometry" />
        </mxCell>
        <mxCell id="9aAdgx9qmNABGIiAxtSB-47" value="Gaming Consoles" style="strokeColor=#dddddd;shadow=1;strokeWidth=1;rounded=1;absoluteArcSize=1;arcSize=2;labelPosition=center;verticalLabelPosition=bottom;align=center;verticalAlign=top;spacingLeft=0;fontColor=#000000;fontSize=15;whiteSpace=wrap;spacingBottom=2;html=1;comic=0;fontFamily=Helvetica;labelBackgroundColor=none;fillColor=#FAE5C7;gradientDirection=north;aspect=fixed;" vertex="1" parent="1">
          <mxGeometry x="1090" y="892" width="82.35" height="100" as="geometry" />
        </mxCell>
        <mxCell id="9aAdgx9qmNABGIiAxtSB-48" value="" style="sketch=0;dashed=0;connectable=0;html=1;fillColor=#0F8B8D;strokeColor=none;shape=mxgraph.gcp2.game;part=1;rounded=1;shadow=0;comic=0;strokeWidth=2;align=center;verticalAlign=top;fontFamily=Helvetica;fontSize=12;fontColor=#143642;labelBackgroundColor=none;aspect=fixed;" vertex="1" parent="9aAdgx9qmNABGIiAxtSB-47">
          <mxGeometry x="0.5" width="60" height="32.4" relative="1" as="geometry">
            <mxPoint x="-29" y="21.5" as="offset" />
          </mxGeometry>
        </mxCell>
        <mxCell id="9aAdgx9qmNABGIiAxtSB-50" value="&lt;font style=&quot;font-size: 15px;&quot;&gt;IoT Devices&lt;/font&gt;" style="sketch=0;points=[[0,0,0],[0.25,0,0],[0.5,0,0],[0.75,0,0],[1,0,0],[0,1,0],[0.25,1,0],[0.5,1,0],[0.75,1,0],[1,1,0],[0,0.25,0],[0,0.5,0],[0,0.75,0],[1,0.25,0],[1,0.5,0],[1,0.75,0]];outlineConnect=0;fontColor=#143642;fillColor=#FAE5C7;strokeColor=#0F8B8D;dashed=0;verticalLabelPosition=bottom;verticalAlign=top;align=center;html=1;fontSize=15;fontStyle=0;aspect=fixed;shape=mxgraph.aws4.resourceIcon;resIcon=mxgraph.aws4.internet_of_things;rounded=1;shadow=0;comic=0;strokeWidth=2;fontFamily=Helvetica;labelBackgroundColor=none;gradientDirection=north;" vertex="1" parent="1">
          <mxGeometry x="1212" y="892" width="100" height="100" as="geometry" />
        </mxCell>
        <mxCell id="9aAdgx9qmNABGIiAxtSB-57" value="" style="sketch=0;html=1;aspect=fixed;strokeColor=none;shadow=0;align=center;fillColor=#2D9C5E;verticalAlign=top;labelPosition=center;verticalLabelPosition=bottom;shape=mxgraph.gcp2.check;rounded=1;comic=0;strokeWidth=2;fontFamily=Helvetica;fontSize=12;fontColor=#143642;labelBackgroundColor=none;" vertex="1" parent="1">
          <mxGeometry x="580" y="750" width="25" height="20" as="geometry" />
        </mxCell>
        <mxCell id="9aAdgx9qmNABGIiAxtSB-62" value="" style="edgeStyle=orthogonalEdgeStyle;shape=connector;rounded=0;orthogonalLoop=1;jettySize=auto;html=1;exitX=0.5;exitY=0;exitDx=0;exitDy=0;entryX=0.5;entryY=1;entryDx=0;entryDy=0;strokeColor=#3333FF;strokeWidth=2;align=center;verticalAlign=middle;fontFamily=Helvetica;fontSize=12;fontColor=#143642;labelBackgroundColor=none;endArrow=none;endFill=0;fillColor=#FAE5C7;dashed=1;" edge="1" parent="1" source="9aAdgx9qmNABGIiAxtSB-34" target="9aAdgx9qmNABGIiAxtSB-56">
          <mxGeometry relative="1" as="geometry">
            <mxPoint x="860" y="800" as="sourcePoint" />
            <mxPoint x="860" y="720" as="targetPoint" />
          </mxGeometry>
        </mxCell>
        <mxCell id="9aAdgx9qmNABGIiAxtSB-56" value="" style="sketch=0;aspect=fixed;pointerEvents=1;shadow=0;dashed=0;html=1;strokeColor=none;labelPosition=center;verticalLabelPosition=bottom;verticalAlign=top;align=center;shape=mxgraph.mscae.enterprise.not_allowed;fillColor=#EA1C24;rounded=1;comic=0;strokeWidth=2;fontFamily=Helvetica;fontSize=12;fontColor=#143642;labelBackgroundColor=none;" vertex="1" parent="1">
          <mxGeometry x="850" y="750" width="20" height="20" as="geometry" />
        </mxCell>
        <mxCell id="9aAdgx9qmNABGIiAxtSB-66" value="" style="sketch=0;html=1;aspect=fixed;strokeColor=none;shadow=0;align=center;fillColor=#2D9C5E;verticalAlign=top;labelPosition=center;verticalLabelPosition=bottom;shape=mxgraph.gcp2.check;rounded=1;comic=0;strokeWidth=2;fontFamily=Helvetica;fontSize=12;fontColor=#143642;labelBackgroundColor=none;" vertex="1" parent="1">
          <mxGeometry x="580" y="1110" width="25" height="20" as="geometry" />
        </mxCell>
        <mxCell id="9aAdgx9qmNABGIiAxtSB-68" value="" style="edgeStyle=orthogonalEdgeStyle;shape=connector;rounded=0;orthogonalLoop=1;jettySize=auto;html=1;exitX=0.5;exitY=0;exitDx=0;exitDy=0;entryX=0.5;entryY=1;entryDx=0;entryDy=0;strokeColor=#3333FF;strokeWidth=2;align=center;verticalAlign=middle;fontFamily=Helvetica;fontSize=12;fontColor=#143642;labelBackgroundColor=none;endArrow=none;endFill=0;fillColor=#FAE5C7;dashed=1;" edge="1" parent="1" source="9aAdgx9qmNABGIiAxtSB-40" target="9aAdgx9qmNABGIiAxtSB-67">
          <mxGeometry relative="1" as="geometry">
            <mxPoint x="860" y="1160" as="sourcePoint" />
            <mxPoint x="860" y="1080" as="targetPoint" />
          </mxGeometry>
        </mxCell>
        <mxCell id="9aAdgx9qmNABGIiAxtSB-67" value="" style="sketch=0;aspect=fixed;pointerEvents=1;shadow=0;dashed=0;html=1;strokeColor=none;labelPosition=center;verticalLabelPosition=bottom;verticalAlign=top;align=center;shape=mxgraph.mscae.enterprise.not_allowed;fillColor=#EA1C24;rounded=1;comic=0;strokeWidth=2;fontFamily=Helvetica;fontSize=12;fontColor=#143642;labelBackgroundColor=none;" vertex="1" parent="1">
          <mxGeometry x="850" y="1110" width="20" height="20" as="geometry" />
        </mxCell>
        <mxCell id="9aAdgx9qmNABGIiAxtSB-78" value="" style="sketch=0;pointerEvents=1;shadow=0;dashed=0;html=1;strokeColor=none;fillColor=#434445;aspect=fixed;labelPosition=center;verticalLabelPosition=bottom;verticalAlign=top;align=center;outlineConnect=0;shape=mxgraph.vvd.ethernet_port;rounded=1;comic=0;strokeWidth=2;fontFamily=Helvetica;fontSize=12;fontColor=#143642;labelBackgroundColor=none;" vertex="1" parent="1">
          <mxGeometry x="1300" y="290" width="20" height="20" as="geometry" />
        </mxCell>
        <mxCell id="9aAdgx9qmNABGIiAxtSB-81" value="" style="sketch=0;pointerEvents=1;shadow=0;dashed=0;html=1;strokeColor=none;fillColor=#434445;aspect=fixed;labelPosition=center;verticalLabelPosition=bottom;verticalAlign=top;align=center;outlineConnect=0;shape=mxgraph.vvd.ethernet_port;rounded=1;comic=0;strokeWidth=2;fontFamily=Helvetica;fontSize=12;fontColor=#143642;labelBackgroundColor=none;" vertex="1" parent="1">
          <mxGeometry x="1270" y="820" width="20" height="20" as="geometry" />
        </mxCell>
        <mxCell id="9aAdgx9qmNABGIiAxtSB-82" value="" style="html=1;strokeWidth=1;shadow=0;dashed=0;shape=mxgraph.ios7.misc.wifi;fillColor=#007AFF;strokeColor=none;buttonText=;strokeColor2=#222222;fontColor=#222222;fontSize=8;verticalLabelPosition=bottom;verticalAlign=top;align=center;sketch=0;rounded=1;comic=0;fontFamily=Helvetica;labelBackgroundColor=none;aspect=fixed;" vertex="1" parent="1">
          <mxGeometry x="1300" y="820" width="20" height="20" as="geometry" />
        </mxCell>
        <mxCell id="9aAdgx9qmNABGIiAxtSB-84" value="" style="sketch=0;pointerEvents=1;shadow=0;dashed=0;html=1;strokeColor=none;fillColor=#434445;aspect=fixed;labelPosition=center;verticalLabelPosition=bottom;verticalAlign=top;align=center;outlineConnect=0;shape=mxgraph.vvd.ethernet_port;rounded=1;comic=0;strokeWidth=2;fontFamily=Helvetica;fontSize=12;fontColor=#143642;labelBackgroundColor=none;" vertex="1" parent="1">
          <mxGeometry x="1300" y="1180" width="20" height="20" as="geometry" />
        </mxCell>
        <mxCell id="9aAdgx9qmNABGIiAxtSB-85" value="" style="aspect=fixed;sketch=0;html=1;dashed=0;whitespace=wrap;verticalLabelPosition=bottom;verticalAlign=top;fillColor=#FAE5C7;strokeColor=#0F8B8D;points=[[0.005,0.63,0],[0.1,0.2,0],[0.9,0.2,0],[0.5,0,0],[0.995,0.63,0],[0.72,0.99,0],[0.5,1,0],[0.28,0.99,0]];shape=mxgraph.kubernetes.icon2;kubernetesLabel=1;prIcon=pod;rounded=1;shadow=0;comic=0;strokeWidth=2;align=center;fontFamily=Helvetica;fontSize=15;fontColor=#143642;labelBackgroundColor=none;fontStyle=0;gradientDirection=north;" vertex="1" parent="1">
          <mxGeometry x="660" y="1265" width="104.17" height="100" as="geometry" />
        </mxCell>
        <mxCell id="9aAdgx9qmNABGIiAxtSB-98" value="" style="sketch=0;html=1;aspect=fixed;strokeColor=none;shadow=0;align=center;fillColor=#2D9C5E;verticalAlign=top;labelPosition=center;verticalLabelPosition=bottom;shape=mxgraph.gcp2.check;rounded=1;comic=0;strokeWidth=2;fontFamily=Helvetica;fontSize=12;fontColor=#143642;labelBackgroundColor=none;" vertex="1" parent="1">
          <mxGeometry x="1463" y="1110" width="25" height="20" as="geometry" />
        </mxCell>
        <mxCell id="9aAdgx9qmNABGIiAxtSB-99" value="" style="sketch=0;html=1;aspect=fixed;strokeColor=none;shadow=0;align=center;fillColor=#2D9C5E;verticalAlign=top;labelPosition=center;verticalLabelPosition=bottom;shape=mxgraph.gcp2.check;rounded=1;comic=0;strokeWidth=2;fontFamily=Helvetica;fontSize=12;fontColor=#143642;labelBackgroundColor=none;" vertex="1" parent="1">
          <mxGeometry x="1415" y="972" width="25" height="20" as="geometry" />
        </mxCell>
        <mxCell id="9aAdgx9qmNABGIiAxtSB-101" value="&lt;font style=&quot;font-size: 15px;&quot;&gt;Database&lt;/font&gt;" style="shape=datastore;whiteSpace=wrap;html=1;rounded=1;shadow=0;comic=0;strokeColor=#0F8B8D;strokeWidth=2;align=center;verticalAlign=top;fontFamily=Helvetica;fontSize=12;fontColor=#143642;labelBackgroundColor=none;fillColor=#FAE5C7;gradientDirection=north;aspect=fixed;" vertex="1" parent="1">
          <mxGeometry x="500" y="1265" width="100" height="100" as="geometry" />
        </mxCell>
        <mxCell id="9aAdgx9qmNABGIiAxtSB-107" value="Home Assistant" style="shadow=0;dashed=0;html=1;strokeColor=#0F8B8D;fillColor=#FAE5C7;labelPosition=center;verticalLabelPosition=bottom;verticalAlign=top;align=center;outlineConnect=0;shape=mxgraph.veeam.vm_linux;rounded=1;comic=0;pointerEvents=1;strokeWidth=2;fontFamily=Helvetica;fontSize=15;fontColor=#143642;labelBackgroundColor=none;gradientColor=none;gradientDirection=north;" vertex="1" parent="1">
          <mxGeometry x="470" y="530" width="100" height="100" as="geometry" />
        </mxCell>
        <mxCell id="9aAdgx9qmNABGIiAxtSB-108" value="" style="aspect=fixed;sketch=0;html=1;dashed=0;whitespace=wrap;verticalLabelPosition=bottom;verticalAlign=top;fillColor=#FAE5C7;strokeColor=#0F8B8D;points=[[0.005,0.63,0],[0.1,0.2,0],[0.9,0.2,0],[0.5,0,0],[0.995,0.63,0],[0.72,0.99,0],[0.5,1,0],[0.28,0.99,0]];shape=mxgraph.kubernetes.icon2;kubernetesLabel=1;prIcon=pod;rounded=1;shadow=0;comic=0;strokeWidth=2;align=center;fontFamily=Helvetica;fontSize=15;fontColor=#143642;labelBackgroundColor=none;fontStyle=0;gradientDirection=north;" vertex="1" parent="1">
          <mxGeometry x="820" y="1265" width="104.17" height="100" as="geometry" />
        </mxCell>
        <mxCell id="9aAdgx9qmNABGIiAxtSB-110" value="&lt;font style=&quot;font-size: 17px;&quot;&gt;&lt;b&gt;Kubernetes [k3s]&lt;/b&gt;&lt;/font&gt;" style="points=[[0,0],[0.25,0],[0.5,0],[0.75,0],[1,0],[1,0.25],[1,0.5],[1,0.75],[1,1],[0.75,1],[0.5,1],[0.25,1],[0,1],[0,0.75],[0,0.5],[0,0.25]];outlineConnect=0;gradientColor=none;html=1;whiteSpace=wrap;fontSize=12;fontStyle=0;container=1;pointerEvents=0;collapsible=0;recursiveResize=0;shape=mxgraph.aws4.group;grIcon=mxgraph.aws4.group_on_premise;strokeColor=#7D8998;fillColor=none;verticalAlign=top;align=left;spacingLeft=30;fontColor=#5A6C86;dashed=0;rounded=1;shadow=0;comic=0;strokeWidth=2;fontFamily=Helvetica;labelBackgroundColor=none;" vertex="1" parent="1">
          <mxGeometry x="460" y="1220" width="800" height="180" as="geometry" />
        </mxCell>
        <mxCell id="9aAdgx9qmNABGIiAxtSB-106" value="&lt;font style=&quot;font-size: 15px;&quot;&gt;Load Balancer&lt;/font&gt;" style="verticalLabelPosition=bottom;sketch=0;html=1;fillColor=#FAE5C7;strokeColor=#0F8B8D;verticalAlign=top;align=center;points=[[0,0.5,0],[0.125,0.25,0],[0.25,0,0],[0.5,0,0],[0.75,0,0],[0.875,0.25,0],[1,0.5,0],[0.875,0.75,0],[0.75,1,0],[0.5,1,0],[0.125,0.75,0]];pointerEvents=1;shape=mxgraph.cisco_safe.compositeIcon;bgIcon=mxgraph.cisco_safe.design.blank_device;resIcon=mxgraph.cisco_safe.design.load_balancer;rounded=1;shadow=0;comic=0;strokeWidth=2;fontFamily=Helvetica;fontSize=15;fontColor=#143642;labelBackgroundColor=none;dashed=0;fontStyle=0;gradientColor=none;gradientDirection=north;aspect=fixed;flipH=1;" vertex="1" parent="9aAdgx9qmNABGIiAxtSB-110">
          <mxGeometry x="650" y="45" width="111.11" height="100" as="geometry" />
        </mxCell>
        <mxCell id="9aAdgx9qmNABGIiAxtSB-113" value="" style="aspect=fixed;sketch=0;html=1;dashed=0;whitespace=wrap;verticalLabelPosition=bottom;verticalAlign=top;fillColor=#FAE5C7;strokeColor=#0F8B8D;points=[[0.005,0.63,0],[0.1,0.2,0],[0.9,0.2,0],[0.5,0,0],[0.995,0.63,0],[0.72,0.99,0],[0.5,1,0],[0.28,0.99,0]];shape=mxgraph.kubernetes.icon2;kubernetesLabel=1;prIcon=pod;rounded=1;shadow=0;comic=0;strokeWidth=2;align=center;fontFamily=Helvetica;fontSize=15;fontColor=#143642;labelBackgroundColor=none;fontStyle=0;gradientDirection=north;" vertex="1" parent="1">
          <mxGeometry x="970" y="1265" width="104.17" height="100" as="geometry" />
        </mxCell>
      </root>
    </mxGraphModel>
  </diagram>
</mxfile>
